<svg aria-hidden="true" style="position: absolute; width: 0; height: 0; overflow: hidden;" version="1.1" xmlns="http://www.w3.org/2000/svg" xmlns:xlink="http://www.w3.org/1999/xlink">
<defs>
<symbol id="icon-btn-right" viewBox="0 0 49 32">
<path stroke-linejoin="miter" stroke-linecap="butt" stroke-miterlimit="4" stroke-width="0.5" d="M31.75 16c0 8.698-7.052 15.75-15.75 15.75s-15.75-7.052-15.75-15.75c0-8.698 7.051-15.75 15.75-15.75s15.75 7.051 15.75 15.75z"></path>
<path d="M48.177 16.177c0.045-0.045 0.073-0.108 0.073-0.177s-0.028-0.132-0.073-0.177v0l-1.591-1.591c-0.046-0.047-0.109-0.076-0.18-0.076-0.138 0-0.25 0.112-0.25 0.25 0 0.071 0.029 0.134 0.076 0.18l1.414 1.414-1.414 1.414c-0.045 0.045-0.073 0.108-0.073 0.177 0 0.138 0.112 0.25 0.25 0.25 0.069 0 0.132-0.028 0.177-0.073v0l1.591-1.59zM15 16.25h33v-0.5h-33v0.5z"></path>
</symbol>
<symbol id="icon-btn-left" viewBox="0 0 49 32">
<path stroke-linejoin="miter" stroke-linecap="butt" stroke-miterlimit="4" stroke-width="0.5" d="M48.25 16c0 8.698-7.051 15.75-15.75 15.75s-15.75-7.052-15.75-15.75c0-8.698 7.052-15.75 15.75-15.75s15.75 7.051 15.75 15.75z"></path>
<path d="M0.323 15.823c-0.045 0.045-0.073 0.108-0.073 0.177s0.028 0.132 0.073 0.177v0l1.591 1.59c0.045 0.045 0.108 0.073 0.177 0.073 0.138 0 0.25-0.112 0.25-0.25 0-0.069-0.028-0.131-0.073-0.177v0l-1.415-1.414 1.415-1.414c0.045-0.045 0.073-0.108 0.073-0.177 0-0.138-0.112-0.25-0.25-0.25-0.069 0-0.132 0.028-0.177 0.073v0l-1.591 1.591zM0.5 16.25h33v-0.5h-33v0.5z"></path>
</symbol>
<symbol id="icon-dagger" viewBox="0 0 32 32">
<path d="M26.667 7.303l-1.97-1.97-7.808 7.808-7.808-7.808-1.97 1.97 7.808 7.808-7.808 7.808 1.97 1.97 7.808-7.808 7.808 7.808 1.97-1.97-7.808-7.808 7.808-7.808z"></path>
</symbol>
<symbol id="icon-logo" viewBox="0 0 40 32">
<path d="M16.463 31.448v-5.12l-0.132-0.839v-8.563c0-1.971-0.559-3.487-1.677-4.546-1.089-1.059-2.722-1.589-4.899-1.589-1.501 0-2.928 0.25-4.281 0.75s-2.501 1.162-3.443 1.986l-1.412-2.339c1.177-1 2.589-1.766 4.237-2.295 1.648-0.559 3.384-0.839 5.208-0.839 3.001 0 5.311 0.75 6.93 2.251 1.648 1.471 2.472 3.722 2.472 6.753v14.389h-3.001zM8.474 31.669c-1.736 0-3.251-0.28-4.546-0.839-1.265-0.589-2.236-1.383-2.913-2.383-0.677-1.030-1.015-2.207-1.015-3.531 0-1.207 0.28-2.295 0.839-3.266 0.589-1 1.53-1.795 2.825-2.383 1.324-0.618 3.090-0.927 5.297-0.927h7.989v2.339h-7.901c-2.236 0-3.796 0.397-4.679 1.192-0.854 0.794-1.28 1.78-1.28 2.957 0 1.324 0.515 2.383 1.545 3.178s2.472 1.192 4.326 1.192c1.766 0 3.281-0.397 4.546-1.192 1.295-0.824 2.236-2.001 2.825-3.531l0.706 2.163c-0.589 1.53-1.618 2.751-3.090 3.663-1.442 0.912-3.266 1.368-5.473 1.368z"></path>
<path d="M29.44 31.669c-2.413 0-4.532-0.5-6.356-1.501-1.825-1.030-3.252-2.428-4.281-4.193-1.030-1.795-1.545-3.84-1.545-6.135s0.486-4.326 1.457-6.091c1-1.766 2.354-3.149 4.061-4.149 1.736-1.030 3.678-1.545 5.826-1.545 2.177 0 4.105 0.5 5.782 1.501 1.706 0.971 3.046 2.354 4.017 4.149 0.971 1.766 1.457 3.811 1.457 6.135 0 0.147-0.015 0.309-0.044 0.486v0.486h-20.171v-2.339h18.494l-1.236 0.927c0-1.677-0.368-3.163-1.103-4.458-0.706-1.324-1.677-2.354-2.913-3.090s-2.663-1.103-4.281-1.103c-1.589 0-3.016 0.368-4.281 1.103s-2.251 1.766-2.957 3.090-1.059 2.84-1.059 4.546v0.486c0 1.766 0.382 3.325 1.148 4.679 0.794 1.324 1.883 2.369 3.266 3.134 1.412 0.735 3.016 1.103 4.811 1.103 1.412 0 2.722-0.25 3.928-0.75 1.236-0.5 2.295-1.265 3.178-2.295l1.766 2.030c-1.030 1.236-2.325 2.178-3.884 2.825-1.53 0.647-3.222 0.971-5.076 0.971z"></path>
<path d="M37.297 3.31h-15.448v-3.31h15.448v3.31z"></path>
</symbol>
<symbol id="icon-phone" viewBox="0 0 32 32">
<path d="M26.331 6.267l-3.346-3.344c-0.392-0.394-0.934-0.638-1.534-0.638s-1.142 0.244-1.534 0.638l-0 0-3.606 3.599c-0.394 0.393-0.638 0.936-0.638 1.537s0.244 1.144 0.638 1.537l2.816 2.818c-0.677 1.554-1.592 2.881-2.715 4l-0 0c-1.119 1.125-2.444 2.042-3.916 2.69l-0.082 0.032-2.815-2.819c-0.392-0.394-0.934-0.638-1.534-0.638s-1.142 0.244-1.534 0.638l-0 0-3.608 3.599c-0.394 0.393-0.638 0.936-0.638 1.537s0.244 1.144 0.638 1.537l3.344 3.343c0.697 0.697 1.659 1.097 2.647 1.097 0.205 0 0.402-0.016 0.603-0.050 4.16-0.686 8.29-2.901 11.625-6.232 3.331-3.337 5.544-7.466 6.235-11.63 0.031-0.181 0.049-0.389 0.049-0.602 0-1.034-0.419-1.97-1.096-2.647l0 0zM25.15 9.143c-0.613 3.705-2.606 7.4-5.607 10.401s-6.694 4.994-10.4 5.606c-0.071 0.012-0.152 0.019-0.235 0.019-0.409 0-0.778-0.166-1.046-0.434l-3.285-3.283 3.482-3.486 3.793 3.8 0.679-0.251c4.177-1.566 7.414-4.803 8.945-8.876l0.034-0.104 0.251-0.679-3.797-3.794 3.482-3.483 3.285 3.283c0.339 0.339 0.496 0.817 0.417 1.282z"></path>
</symbol>
<symbol id="icon-menu" viewBox="0 0 36 32">
<path d="M0 0h36v4h-36v-4zM12 14h24v4h-24v-4zM0 28h36v4h-36v-4z"></path>
</symbol>
<symbol id="icon-facebook" viewBox="0 0 32 32">
<path stroke-linejoin="round" stroke-linecap="round" stroke-miterlimit="4" stroke-width="2.2857" d="M24 2.666h-4c-0 0-0.001 0-0.001 0-3.682 0-6.666 2.985-6.666 6.666 0 0 0 0.001 0 0.001v-0 4h-4v5.333h4v10.667h5.334v-10.667h4l1.334-5.333h-5.334v-4c0-0.737 0.597-1.334 1.334-1.334v0h4v-5.334z"></path>
</symbol>
<symbol id="icon-instagram" viewBox="0 0 32 32">
<path d="M28.846 15.998c-0.016-0-0.032-0-0.048-0 0-1.298 0.025-2.597-0.007-3.894-0.031-1.224-0.077-2.451-0.201-3.668-0.119-1.164-0.529-2.237-1.315-3.142-1.099-1.266-2.55-1.799-4.157-1.897-1.828-0.112-3.663-0.139-5.495-0.161-1.823-0.022-3.648-0.015-5.471 0.022-1.224 0.025-2.451 0.076-3.668 0.201-1.164 0.119-2.237 0.529-3.142 1.315-1.266 1.099-1.799 2.55-1.897 4.157-0.112 1.828-0.139 3.663-0.161 5.495-0.022 1.823-0.015 3.648 0.022 5.471 0.025 1.224 0.077 2.451 0.201 3.668 0.119 1.164 0.529 2.237 1.315 3.142 1.099 1.266 2.55 1.799 4.157 1.897 1.828 0.112 3.663 0.139 5.495 0.161 1.823 0.022 3.648 0.023 5.471-0.024 1.346-0.035 2.705-0.060 4.031-0.268 2.265-0.356 3.798-1.669 4.408-3.917 0.198-0.728 0.301-1.498 0.329-2.254 0.078-2.099 0.093-4.201 0.134-6.302zM0.464 21.133c0-3.422 0-6.844 0-10.266 0.017-0.097 0.047-0.194 0.050-0.292 0.036-1.205 0.090-2.407 0.385-3.583 0.666-2.654 2.205-4.585 4.736-5.679 1.373-0.594 2.831-0.766 4.309-0.826 0.324-0.013 0.648-0.046 0.971-0.070h10.266c0.097 0.017 0.194 0.047 0.292 0.050 1.205 0.036 2.407 0.090 3.584 0.385 2.654 0.666 4.585 2.205 5.679 4.736 0.594 1.373 0.766 2.831 0.826 4.309 0.013 0.324 0.046 0.648 0.070 0.971v10.266c-0.017 0.097-0.047 0.194-0.050 0.292-0.036 1.205-0.090 2.407-0.385 3.583-0.666 2.654-2.205 4.585-4.736 5.679-1.372 0.594-2.831 0.766-4.309 0.826-0.324 0.013-0.647 0.046-0.971 0.070h-10.266c-0.097-0.017-0.194-0.047-0.292-0.050-1.205-0.036-2.407-0.090-3.583-0.385-2.654-0.666-4.585-2.205-5.679-4.736-0.593-1.372-0.766-2.831-0.826-4.309-0.013-0.324-0.046-0.647-0.070-0.971z"></path>
<path d="M16.044 21.184c2.837 0 5.186-2.321 5.189-5.126 0.003-2.89-2.299-5.241-5.134-5.243-2.9-0.002-5.235 2.304-5.235 5.172s2.321 5.197 5.18 5.197zM24.057 16.007c-0.002 4.431-3.592 8.009-8.031 8.002-4.415-0.006-7.99-3.595-7.987-8.016 0.003-4.433 3.593-8.010 8.031-8.002 4.416 0.007 7.989 3.593 7.987 8.016z"></path>
<path d="M24.35 5.806c1.047-0.005 1.89 0.829 1.892 1.871s-0.838 1.887-1.879 1.889c-1.031 0.002-1.885-0.856-1.881-1.891 0.004-1.024 0.844-1.865 1.868-1.869z"></path>
</symbol>
</defs>
</svg>
